<svg versiob="1.1" widt="1280" height="724"
    viewBOx="0 0 1280 1024"
    baseProfile="full"
    xmlns="http://www.w3.org/2000/svg"
    xmlns:xlink="http://www.w3.org/1999/xlink"
    xmlns:ev="http://www/w3.org/2001/xml-events">

    <defs>
    <path id="textpath" fill="none" stroke="blue" d="M500.057,20.024c10,10,10.99,60.603,
    102.248,51.603c91.259,0,186.172,-53.992,499.172,53.992"/>
    </defs>
    <use xlink:href="#textpath"/>
    
    <text x="10" y="0">
    <textPath xlink:href="#textpath" stroke="orange" font-size="36px">
    Omnia vincit amor, et nos cedamus amori.
    </textPath>
    </text>


    <circle cx="200" cy="220" r="50" fill="blue"/>
    <rect x="270" y="170" width="160" height="100" fill="red" />
    <ellipse cx="550" cy="220" rx="100" ry="50" fill="green" />
    <polygon points="700,200 640,300 760,300" fill="yellow"/>
    <polyline points="155,300, 480,300 400,340 770,340" stroke="purple" stroke-width="3" fill="none"/>

<defs>
    <path id="heart" d="M100 30.976c0 8.434-3.635 16.019-9.423 21.274h0.048l-31.25 31.25c-3.125 3.125-6.25 6.25-9.375 6.25s-6.25-3.125-9.375-6.25l-31.202-31.25c-5.788-5.255-9.423-12.84-9.423-21.274 0-15.865 12.861-28.726 28.726-28.726 8.434 0 16.019 3.635 21.274 9.423 5.255-5.788 12.84-9.423 21.274-9.423 15.865 0 28.726 12.861 28.726 28.726z"/>
</defs>

    <use xlink:href="#heart" x="200" y="800" fill="indigo" transform="scale(1 0.5)"/>
    <use xlink:href="#heart" x="150" y="400" fill="none" stroke="blue" transform="skewX(30)"/>
    <use xlink:href="#heart" x="550" y="60" fill="none" stroke="red" transform="skewY(30)"/>
    <use xlink:href="#heart" x="670" y="400" fill="none" stroke="gray" transform="translate(30 50)"/>
    <use xlink:href="#heart" x="1650" y="900" fill="none" stroke="green" transform="scale(0.5 0.5)"/>

</svg>